<svg xmlns="http://www.w3.org/2000/svg" width="1692" height="1261" fill="currentColor" viewBox="0 0 1692 1261">
  <defs>
    <clipPath id="a" class="a">
      <path d="M0 0h1691v1260.07H0z" transform="translate(.339 .04)"/>
    </clipPath>
  </defs>
  <g class="logo-jsconic-vertical" clip-path="url(#a)">
    <g class="logo-jsonic-mark">
      <path fill-rule="evenodd" d="M468.66 445.29c4.13-32.503 9.79-66.851 16.588-100.989 6.006-30.158 12.9-60.148 20.388-88.558 5.255-19.941 10.804-39.103 16.544-56.998 3.465-10.804 7-21.146 10.582-30.918 6.038-16.474 12.211-31.33 18.411-44.052a254.03 254.03 0 0 1 5.706-11.036c10.316-18.769 20.997-31.96 30.846-38.413 11.68-7.652 32.885-12.83 61.013-14.464 56.462-3.279 143.762 5.826 230.427 21.7 1.862.341 3.724.685 5.586 1.033 24.171 4.51 48.238 9.537 71.519 14.948 61.95 14.399 118.33 31.521 156.31 48.863 25.49 11.636 43.18 24.074 51.09 35.379 7.9 11.306 13.26 31.831 14.94 59.057 3.46 55.825-6.43 142.797-23.48 228.444-17.06 85.647-41.28 169.946-65.93 220.526-12.02 24.669-24.87 41.798-36.55 49.449-11.68 7.652-32.89 12.831-61.013 14.464-57.675 3.349-147.528-6.223-236.013-22.733-88.484-16.509-175.575-39.951-227.832-63.811-25.485-11.636-43.182-24.074-51.087-35.379-7.905-11.306-13.255-31.831-14.943-59.057-1.148-18.532-.826-40.497.742-64.706 1.272-19.649 3.365-40.778 6.156-62.749Zm67.219-177.023c-6.833 26.391-13.139 54.122-18.689 81.993-5.742 28.835-10.677 57.821-14.527 85.634l93.687-25.889c5.406-16.214 18.796-29.613 36.978-34.637 28.968-8.005 59.2 8.26 67.47 36.299 8.27 28.039-8.534 57.302-37.502 65.307-18.182 5.024-36.862.487-50.297-10.521l-117.289 32.41c-2.126 27.145-2.734 51.7-1.477 71.996 1.228 19.812 3.66 35.068 9.412 43.295 5.752 8.226 19.481 16.083 38.026 24.55 50.467 23.043 134.654 45.426 220.11 61.371 85.457 15.944 172.207 25.454 227.908 22.22 20.471-1.188 36.231-3.542 44.731-9.11 8.5-5.567 16.61-18.856 25.36-36.806 23.81-48.849 46.93-130.336 63.4-213.052 16.48-82.716 26.3-166.685 22.96-220.599-1.23-19.812-3.66-35.069-9.41-43.295-5.75-8.226-19.48-16.083-38.03-24.55-41.57-18.982-106.024-37.517-175.221-52.373l-100.587 76.586 54.167 156.511c16.97 4.493 31.395 16.829 37.398 34.174 9.565 27.634-5.85 57.586-34.4 66.844-28.55 9.257-59.494-5.663-69.058-33.297-6.003-17.345-2.166-35.603 8.583-49.084l-55.419-160.128-199.27-39.862c-4.314 11.488-8.559 23.862-12.696 36.921l92.678 38.379c14.759-9.284 33.88-11.509 51.264-4.31 27.697 11.469 40.563 42.546 28.714 69.355-11.85 26.809-43.957 39.262-71.653 27.792-17.384-7.199-28.926-22.122-32.18-38.866l-85.141-35.258Zm309.106-160.681c-74.063-12.293-145.901-19.104-194.299-16.294-20.467 1.188-36.23 3.542-44.729 9.109-5.359 3.512-10.567 10.094-15.877 18.979l189.601 37.928 65.304-49.722Z" class="Vector" clip-rule="evenodd"/>
      <path fill-rule="evenodd" d="M790.78 571.88c-11.927-17.872-32.548-29.854-56.157-30.236-37.615-.609-68.664 28.456-69.293 64.865-.629 36.408 29.399 66.462 67.014 67.071 23.609.382 44.631-10.926 57.169-28.402l175.809 2.846c17.54.284 32.985-11.13 37.328-27.582l129.82-492.197c20.72-7.101 37.53-23.75 43.37-45.895 9.31-35.282-12.73-71.24-49.18-80.248-36.45-9.008-73.6 12.324-82.9 47.606-5.85 22.145.66 44.556 15.33 60.402L936.667 574.241 790.78 571.88Z" class="Vector" clip-rule="evenodd"/>
    </g>
    <path fill-rule="evenodd" d="m.339 1164.58 76.617-9.18c.459 17.44 5.964 21.57 27.527 21.57h33.492c21.563 0 27.527-5.05 27.527-22.94V938.399h76.617v213.791c-.459 37.17-5.964 54.6-21.563 70.2-16.057 15.6-36.244 22.02-70.194 22.02H92.096c-33.95 0-54.595-6.42-70.194-21.56-14.222-13.31-19.27-28.45-21.563-58.27Zm272.632 0 76.617-9.18c3.211 17.44 10.552 21.57 36.703 21.57h88.087c21.563 0 27.527-5.05 27.527-22.94v-9.18c0-17.89-5.964-22.94-27.527-22.94h-109.65c-33.95 0-55.054-6.42-70.194-22.02-13.764-13.76-21.563-36.24-21.563-60.56v-18.35c0-24.316 7.799-46.337 21.563-60.56 15.14-15.598 35.785-22.021 70.194-22.021h122.496c33.95 0 54.595 6.423 70.194 21.563 14.222 13.304 19.269 28.444 21.563 58.268l-76.617 9.17c-3.212-17.43-10.552-21.56-36.703-21.56h-88.087c-21.563 0-27.527 5.05-27.527 22.94v9.18c0 17.89 5.964 22.93 27.527 22.93h109.65c33.95 0 55.054 6.43 70.194 22.03 13.764 13.76 21.563 36.24 21.563 60.56v18.35c0 24.31-7.799 46.33-21.563 60.56-15.14 15.6-35.785 22.02-70.194 22.02H364.728c-33.95 0-54.596-6.42-70.194-21.56-14.223-13.31-19.269-28.45-21.563-58.27Zm626.445-202.535c6.875 6.875 13.819 18.57 18.632 34.609 7.286 24.286 11.278 61.856 11.278 99.466 0 37.61-3.992 75.18-11.278 99.47-4.813 16.04-11.757 27.73-18.632 34.61-6.875 6.87-18.571 13.82-34.61 18.63-24.282 7.28-61.854 11.28-99.466 11.28-37.612 0-75.184-4-99.466-11.28-16.039-4.81-27.735-11.76-34.61-18.63-6.875-6.88-13.819-18.57-18.632-34.61-7.286-24.29-11.278-61.86-11.278-99.47s3.992-75.18 11.278-99.466c4.813-16.039 11.757-27.734 18.632-34.609 6.875-6.875 18.571-13.82 34.61-18.632 24.282-7.286 61.854-11.279 99.466-11.279 37.612 0 75.184 3.993 99.466 11.279 16.039 4.812 27.735 11.757 34.61 18.632ZM678.884 1182.58c3.028 1.13 9.139 3.33 13.974 4.42 19.564 4.39 46.03 6.44 72.482 6.44 26.452 0 52.918-2.05 72.482-6.44 4.835-1.09 10.946-3.29 13.974-4.42 1.138-3.03 3.335-9.14 4.42-13.98 4.392-19.56 6.444-46.03 6.444-72.48 0-26.45-2.052-52.92-6.444-72.48-1.085-4.84-3.282-10.95-4.42-13.97-3.028-1.14-9.139-3.34-13.974-4.43-19.564-4.39-46.03-6.439-72.482-6.439-26.452 0-52.918 2.049-72.482 6.439-4.835 1.09-10.946 3.29-13.974 4.43-1.138 3.02-3.335 9.13-4.42 13.97-4.392 19.56-6.444 46.03-6.444 72.48 0 26.45 2.052 52.92 6.444 72.48 1.085 4.84 3.282 10.95 4.42 13.98Zm349.436-155.18v217.01h-76.621V938.399h95.371l134.02 195.251V938.399h76.62v306.011h-76.62l-152.77-217.01Zm333.11-107.751v324.761h-76.62V938.399l76.62-18.75Zm253.29 235.751 76.62 9.18c-2.3 29.82-7.34 44.96-21.57 58.27-15.59 15.14-36.24 21.56-70.19 21.56h-122.5c-33.95 0-54.59-6.42-70.19-22.02-15.6-15.6-21.56-35.33-21.56-70.2v-121.58c0-34.863 5.96-54.591 21.56-70.19 15.6-15.598 36.24-22.021 70.19-22.021h122.5c33.95 0 54.6 6.423 70.19 21.563 14.23 13.304 19.27 28.444 21.57 58.268l-76.62 9.17c-.46-17.43-5.51-21.56-27.53-21.56h-97.72c-21.56 0-27.53 5.05-27.53 22.94v125.25c0 17.89 5.97 22.94 27.53 22.94h97.72c21.57 0 27.07-4.59 27.53-21.57Z" class="logo-jsonic-text" clip-rule="evenodd"/>
  </g>
</svg>
