<svg xmlns="http://www.w3.org/2000/svg" width="716" height="779" fill="none" viewBox="0 0 716 779">
  <g class="logo-jsconic-mark-color">
    <g class="logo-jsonic-mark-shadow">
      <g class="Clip path group">
        <mask id="a" width="672" height="672" x="28" y="91" class="a" maskUnits="userSpaceOnUse" style="mask-type:luminance">
          <g class="_clip1">
            <path fill="#fff" d="M686.841 207.539c44.819 65.75-36.957 497.742-102.708 542.561-65.751 44.82-497.742-36.957-542.562-102.707-44.82-65.751 36.957-497.742 102.708-542.562 65.751-44.82 497.742 36.957 542.562 102.708Z" class="Vector"/>
          </g>
        </mask>
        <g class="Group" mask="url(#a)">
          <path fill="#000" fill-rule="evenodd" d="M363.5 390.349 308.656 228.43 97.508 185.527l23.969-55.739 215.742 43.836a29.698 29.698 0 0 1 22.215 19.576l60.323 178.095c16.643 4.492 30.82 16.933 36.761 34.472 9.465 27.944-5.538 58.315-33.482 67.78-27.944 9.465-58.316-5.537-67.781-33.481-5.941-17.539-2.242-36.035 8.245-49.717Z" class="Vector" clip-rule="evenodd"/>
          <path fill="#000" fill-rule="evenodd" d="m160.361 323.579-98.385-41.704 15.912-57.811 105.666 44.801c14.431-9.447 33.159-11.762 50.217-4.532 27.178 11.521 39.89 42.938 28.37 70.116-11.521 27.178-42.939 39.89-70.116 28.369-17.058-7.23-28.418-22.3-31.664-39.239Zm-1.06 160.79-131.09 37.898 6.21-63.655 108.376-31.332c5.242-16.432 18.317-30.039 36.116-35.185 28.357-8.198 58.035 8.169 66.233 36.526 8.198 28.358-8.169 58.036-36.526 66.234-17.798 5.146-36.117.614-49.319-10.486Zm247.73-380.25 69.334 14.147-130.78 103.582c-12.856 10.182-31.559 8.011-41.741-4.844-10.182-12.855-8.011-31.559 4.844-41.741l98.343-71.144Z" class="Vector" clip-rule="evenodd"/>
        </g>
      </g>
      <path fill="#000" fill-rule="evenodd" d="M186.308 109.526c-17.771 1.88-28.3 5.232-33.054 8.472-4.754 3.241-11.722 11.816-19.967 27.67-7.929 15.244-16.043 35.222-24.006 58.716-15.91 46.934-30.727 106.431-42.163 166.843-11.436 60.412-19.39 121.209-21.736 170.709-1.175 24.78-.924 46.341.884 63.428 1.88 17.771 5.231 28.3 8.471 33.054 3.24 4.754 11.816 11.721 27.67 19.967 15.245 7.928 35.222 16.042 58.717 24.006 46.933 15.908 106.43 30.726 166.842 42.163 60.412 11.436 121.209 19.389 170.71 21.736 24.779 1.174 46.34.923 63.427-.884 17.772-1.881 28.3-5.232 33.054-8.473l8.976 13.167-8.976-13.167c4.754-3.24 11.722-11.815 19.968-27.67 7.928-15.244 16.042-35.221 24.005-58.715 15.909-46.934 30.727-106.431 42.163-166.843 11.436-60.412 19.39-121.209 21.737-170.71 1.174-24.779.923-46.34-.884-63.427-1.881-17.771-5.232-28.3-8.472-33.053-3.241-4.754-11.816-11.722-27.671-19.968-15.244-7.928-35.221-16.042-58.715-24.006-46.934-15.909-106.431-30.727-166.843-42.163-60.412-11.436-121.209-19.39-170.71-21.736-24.779-1.175-46.34-.924-63.427.884Zm513.699 89.038-13.166 8.975 13.167-8.975c7.964 11.684 11.861 29.038 13.831 47.651 2.041 19.297 2.241 42.623 1.025 68.289-2.436 51.391-10.632 113.722-22.257 175.129-11.624 61.407-26.777 122.42-43.293 171.146-8.249 24.335-16.961 45.973-25.915 63.19-8.636 16.605-18.607 31.334-30.291 39.298-11.684 7.965-29.038 11.862-47.651 13.832-19.298 2.041-42.624 2.242-68.29 1.025-51.391-2.436-113.721-10.632-175.128-22.257-61.408-11.624-122.421-26.777-171.146-43.293-24.336-8.249-45.974-16.961-63.19-25.915-16.606-8.636-31.335-18.607-39.3-30.29v-.001c-7.964-11.683-11.861-29.037-13.83-47.651-2.042-19.297-2.242-42.623-1.026-68.29 2.436-51.39 10.632-113.721 22.257-175.128 11.624-61.407 26.777-122.42 43.293-171.146 8.25-24.335 16.961-45.974 25.915-63.19 8.637-16.606 18.607-31.334 30.291-39.299 11.684-7.964 29.038-11.862 47.651-13.831 19.298-2.042 42.624-2.242 68.29-1.025 51.391 2.435 113.721 10.632 175.129 22.256 61.407 11.625 122.42 26.778 171.146 43.294 24.335 8.249 45.973 16.961 63.19 25.915 16.605 8.636 31.334 18.607 39.298 30.291Z" class="Vector (Stroke)" clip-rule="evenodd"/>
      <path fill="#000" fill-rule="evenodd" d="M332.601 591.119c-11.687-18.092-31.892-30.222-55.026-30.609-36.857-.616-67.282 28.807-67.899 65.665-.616 36.857 28.808 67.281 65.666 67.898 23.133.386 43.732-11.061 56.017-28.752l172.27 2.88c17.187.288 32.321-11.266 36.573-27.921l127.211-498.264c20.304-7.189 36.775-24.043 42.498-46.461 9.119-35.717-12.476-72.118-48.193-81.236-35.717-9.12-72.117 12.475-81.236 48.192-5.723 22.418.653 45.105 15.026 61.147L475.551 593.51l-142.95-2.391Z" class="Vector" clip-rule="evenodd"/>
    </g>
    <g class="logo-jsonic-mark-color-over">
      <g class="Clip path group">
        <mask id="b" width="671" height="672" x="16" y="75" class="b" maskUnits="userSpaceOnUse" style="mask-type:luminance">
          <g class="_clip2">
            <path fill="#fff" d="M674.11 191.139c44.82 65.75-36.957 497.742-102.708 542.561-65.75 44.82-497.742-36.956-542.56-102.707-44.82-65.751 36.957-497.742 102.706-542.562 65.751-44.82 497.743 36.957 542.562 102.708Z" class="Vector"/>
          </g>
        </mask>
        <g class="Group" mask="url(#b)">
          <path fill="#E67E22" fill-rule="evenodd" d="m350.77 378.12-54.844-161.919-211.148-42.903 23.968-55.739 215.743 43.836a29.698 29.698 0 0 1 22.215 19.576l60.322 178.095c16.644 4.492 30.82 16.933 36.761 34.472 9.465 27.944-5.538 58.315-33.482 67.78-27.943 9.465-58.315-5.538-67.78-33.481-5.94-17.539-2.242-36.035 8.245-49.717Z" class="Vector" clip-rule="evenodd"/>
          <path fill="#3498DB" fill-rule="evenodd" d="m155.97 307.179-98.386-41.705 15.912-57.81 105.667 44.801c14.43-9.447 33.159-11.762 50.217-4.532 27.178 11.521 39.89 42.939 28.369 70.116-11.52 27.178-42.938 39.89-70.116 28.37-17.058-7.231-28.417-22.301-31.663-39.24Z" class="Vector" clip-rule="evenodd"/>
          <path fill="#2ECC71" fill-rule="evenodd" d="M148.66 472.139 17.571 510.036l6.21-63.655 108.375-31.331c5.242-16.432 18.317-30.039 36.115-35.185 28.358-8.198 58.036 8.169 66.234 36.526 8.198 28.357-8.169 58.036-36.526 66.234-17.799 5.145-36.118.614-49.319-10.486Z" class="Vector" clip-rule="evenodd"/>
          <path fill="#E67E22" fill-rule="evenodd" d="m398.47 96.06 69.334 14.148-130.78 103.582c-12.856 10.182-31.559 8.011-41.741-4.845-10.182-12.855-8.011-31.558 4.844-41.74L398.47 96.06Z" class="Vector" clip-rule="evenodd"/>
        </g>
      </g>
      <path fill="#F1C40F" fill-rule="evenodd" d="M173.578 93.126c-17.771 1.88-28.3 5.231-33.054 8.472-4.754 3.24-11.722 11.816-19.967 27.67-7.928 15.244-16.042 35.222-24.006 58.716-15.909 46.933-30.727 106.431-42.163 166.843-11.436 60.411-19.39 121.208-21.736 170.709-1.175 24.779-.924 46.34.884 63.427 1.88 17.772 5.232 28.3 8.472 33.054 3.24 4.754 11.816 11.722 27.67 19.968 15.244 7.928 35.222 16.042 58.716 24.006 46.933 15.908 106.431 30.726 166.843 42.162 60.412 11.436 121.209 19.39 170.709 21.736 24.779 1.175 46.34.924 63.427-.884 17.772-1.88 28.3-5.232 33.054-8.472 4.754-3.24 11.722-11.816 19.967-27.67 7.929-15.244 16.043-35.222 24.007-58.716 15.908-46.933 30.727-106.43 42.163-166.842 11.436-60.413 19.39-121.209 21.736-170.71 1.174-24.779.924-46.34-.884-63.427-1.881-17.772-5.232-28.3-8.472-33.054-3.241-4.754-11.816-11.722-27.671-19.967-15.243-7.929-35.221-16.043-58.715-24.006-46.933-15.909-106.431-30.727-166.843-42.163-60.412-11.437-121.209-19.39-170.71-21.737-24.779-1.174-46.34-.923-63.427.885Zm474.401 58.746c16.605 8.637 31.334 18.607 39.298 30.291 7.965 11.684 11.862 29.038 13.832 47.651 2.042 19.298 2.242 42.624 1.025 68.29-2.436 51.391-10.632 113.721-22.256 175.128-11.625 61.407-26.778 122.421-43.294 171.146-8.249 24.335-16.961 45.974-25.915 63.19-8.636 16.606-18.607 31.334-30.291 39.299-11.684 7.964-29.038 11.862-47.651 13.831-19.298 2.042-42.623 2.242-68.29 1.026-51.39-2.436-113.721-10.632-175.128-22.257-61.407-11.624-122.421-26.777-171.146-43.293-24.335-8.249-45.974-16.961-63.19-25.915-16.605-8.636-31.334-18.607-39.298-30.291C7.71 628.284 3.813 610.93 1.843 592.317c-2.042-19.298-2.242-42.624-1.025-68.29 2.436-51.391 10.632-113.721 22.256-175.128C34.7 287.492 49.852 226.478 66.368 177.753c8.249-24.335 16.96-45.974 25.914-63.19 8.637-16.606 18.607-31.335 30.291-39.299 11.684-7.965 29.038-11.862 47.651-13.832 19.298-2.041 42.624-2.242 68.29-1.025 51.391 2.436 113.722 10.632 175.129 22.257 61.407 11.624 122.421 26.777 171.146 43.294 24.335 8.248 45.974 16.96 63.19 25.914Z" class="Vector (Stroke)" clip-rule="evenodd"/>
      <path fill="#8E44AD" fill-rule="evenodd" d="M321.96 578.889c-11.686-18.092-31.891-30.222-55.025-30.609-36.858-.616-67.282 28.807-67.898 65.664-.616 36.858 28.807 67.282 65.664 67.898 23.134.387 43.733-11.06 56.019-28.752l172.269 2.881c17.186.288 32.32-11.266 36.573-27.921l127.21-498.264c20.304-7.189 36.776-24.043 42.499-46.461 9.119-35.717-12.475-72.118-48.192-81.237-35.717-9.118-72.118 12.476-81.237 48.193-5.724 22.418.652 45.105 15.025 61.147L464.91 581.28l-142.95-2.391Z" class="Vector" clip-rule="evenodd"/>
    </g>
  </g>
</svg>
