<svg xmlns="http://www.w3.org/2000/svg" width="2144" height="418" fill="currentColor" viewBox="0 0 2144 418">
  <defs>
    <clipPath id="a" class="a">
      <path d="M0 0h2142.33v417.63H0z" transform="translate(.674 .259)"/>
    </clipPath>
  </defs>
  <g class="logo-jsconic-horizontal" clip-path="url(#a)">
    <g class="logo-jsonic-mark">
      <path fill-rule="evenodd" d="M4.738 246.76c2.213-17.994 5.246-37.011 8.89-55.911 3.217-16.696 6.912-33.3 10.924-49.028 2.817-11.04 5.79-21.649 8.866-31.557a452.602 452.602 0 0 1 5.671-17.117c3.236-9.12 6.543-17.345 9.866-24.389a142.48 142.48 0 0 1 3.058-6.11c5.528-10.391 11.251-17.694 16.53-21.266 6.258-4.236 17.622-7.104 32.695-8.008 30.257-1.815 77.039 3.226 123.481 12.014a870.946 870.946 0 0 1 41.32 8.848c33.196 7.972 63.411 17.451 83.765 27.052 13.657 6.442 23.14 13.328 27.376 19.587 4.236 6.259 7.104 17.623 8.008 32.696 1.854 30.907-3.445 79.057-12.586 126.475-9.14 47.417-22.118 94.087-35.328 122.09-6.442 13.658-13.328 23.141-19.587 27.377-6.259 4.236-17.622 7.104-32.696 8.008-30.907 1.854-79.057-3.446-126.475-12.586-47.417-9.14-94.087-22.118-122.09-35.328-13.658-6.442-23.14-13.328-27.377-19.587-4.236-6.259-7.104-17.623-8.008-32.696-.615-10.26-.442-22.421.398-35.823.681-10.879 1.803-22.577 3.3-34.741Zm36.021-98.005c-3.662 14.61-7.04 29.963-10.015 45.394-3.077 15.963-5.722 32.011-7.785 47.409l50.206-14.333c2.896-8.976 10.072-16.394 19.815-19.176 15.523-4.432 31.724 4.573 36.156 20.097 4.432 15.523-4.573 31.724-20.097 36.156-9.743 2.781-19.753.269-26.953-5.825L19.233 276.42c-1.139 15.029-1.465 28.623-.79 39.86.657 10.968 1.96 19.415 5.042 23.969 3.083 4.555 10.44 8.904 20.378 13.592 27.044 12.758 72.159 25.15 117.953 33.977 45.794 8.827 92.282 14.093 122.131 12.302 10.968-.658 19.415-1.961 23.97-5.043 4.554-3.083 8.904-10.44 13.591-20.378 12.758-27.044 25.15-72.158 33.977-117.953 8.828-45.794 14.093-92.282 12.302-122.131-.658-10.968-1.961-19.415-5.043-23.97-3.082-4.554-10.44-8.904-20.377-13.591-22.279-10.51-56.819-20.771-93.901-28.996l-53.902 42.401 29.027 86.65c9.094 2.487 16.824 9.317 20.041 18.919 5.125 15.3-3.135 31.882-18.434 37.008-15.3 5.125-31.882-3.135-37.007-18.435-3.217-9.603-1.161-19.711 4.599-27.174l-29.698-88.653L56.307 96.706c-2.312 6.36-4.586 13.21-6.803 20.44l49.664 21.248c7.909-5.14 18.156-6.372 27.472-2.386 14.842 6.35 21.736 23.555 15.386 38.397-6.349 14.842-23.555 21.737-38.397 15.387-9.316-3.985-15.5-12.247-17.245-21.517l-45.625-19.52Zm165.644-88.959c-39.689-6.806-78.186-10.577-104.121-9.021-10.968.658-19.415 1.961-23.969 5.043-2.872 1.944-5.663 5.588-8.509 10.507l101.604 20.998 34.995-27.527Z" class="Vector" clip-rule="evenodd"/>
      <path fill-rule="evenodd" d="M177.357 316.85c-6.392-9.895-17.442-16.528-30.094-16.74-20.157-.337-36.795 15.754-37.133 35.912-.337 20.157 15.755 36.795 35.912 37.133 12.652.211 23.917-6.049 30.636-15.725l94.213 1.576a20.293 20.293 0 0 0 20.001-15.27l69.571-272.498c11.104-3.93 20.112-13.149 23.242-25.409 4.987-19.533-6.822-39.441-26.356-44.428-19.533-4.987-39.441 6.823-44.428 26.356-3.13 12.26.357 24.668 8.218 33.441l-65.604 256.959-78.178-1.307Z" class="Vector" clip-rule="evenodd"/>
    </g>
    <path fill-rule="evenodd" d="m452.011 305.5 76.617-9.176c.459 17.434 5.964 21.563 27.527 21.563h33.491c21.563 0 27.528-5.047 27.528-22.939V79.318h76.617v213.795c-.459 37.161-5.964 54.595-21.563 70.194-16.058 15.598-36.244 22.022-70.194 22.022h-58.266c-33.95 0-54.596-6.424-70.195-21.563-14.222-13.305-19.269-28.445-21.562-58.266Zm272.631 0 76.617-9.176c3.212 17.434 10.553 21.563 36.703 21.563h88.087c21.563 0 27.527-5.047 27.527-22.939v-9.176c0-17.893-5.964-22.939-27.527-22.939h-109.65c-33.95 0-55.054-6.423-70.194-22.022-13.763-13.764-21.563-36.244-21.563-60.56V161.9c0-24.316 7.8-46.338 21.563-60.56 15.14-15.599 35.785-22.022 70.194-22.022h122.496c33.95 0 54.596 6.423 70.195 21.563 14.22 13.305 19.27 28.445 21.56 58.266l-76.615 9.176c-3.211-17.434-10.552-21.563-36.703-21.563h-88.087c-21.563 0-27.527 5.046-27.527 22.939v9.176c0 17.892 5.964 22.939 27.527 22.939h109.65c33.95 0 55.055 6.423 70.195 22.022 13.76 13.763 21.56 36.244 21.56 60.56v18.351c0 24.316-7.8 46.337-21.56 60.56-15.14 15.598-35.786 22.022-70.195 22.022H816.399c-33.95 0-54.595-6.424-70.194-21.563-14.222-13.305-19.269-28.445-21.563-58.266Zm626.448-202.536c6.87 6.875 13.82 18.571 18.63 34.61 7.28 24.282 11.28 61.854 11.28 99.466 0 37.612-4 75.184-11.28 99.466-4.81 16.039-11.76 27.735-18.63 34.61-6.88 6.875-18.57 13.819-34.61 18.632-24.28 7.286-61.86 11.278-99.47 11.278s-75.18-3.992-99.47-11.278c-16.03-4.813-27.73-11.757-34.6-18.632-6.88-6.875-13.82-18.571-18.64-34.61-7.28-24.282-11.28-61.854-11.28-99.466 0-37.612 4-75.184 11.28-99.466 4.82-16.039 11.76-27.735 18.64-34.61 6.87-6.875 18.57-13.819 34.6-18.632 24.29-7.285 61.86-11.278 99.47-11.278s75.19 3.993 99.47 11.278c16.04 4.813 27.73 11.757 34.61 18.632Zm-220.53 220.532c3.02 1.139 9.13 3.335 13.97 4.42 19.56 4.392 46.03 6.444 72.48 6.444 26.45 0 52.92-2.052 72.48-6.444 4.84-1.085 10.95-3.281 13.98-4.42 1.14-3.028 3.33-9.139 4.42-13.974 4.39-19.564 6.44-46.03 6.44-72.482 0-26.452-2.05-52.918-6.44-72.482-1.09-4.835-3.28-10.946-4.42-13.974-3.03-1.138-9.14-3.335-13.98-4.42-19.56-4.392-46.03-6.443-72.48-6.443-26.45 0-52.92 2.051-72.48 6.443-4.84 1.085-10.95 3.282-13.97 4.42-1.14 3.028-3.34 9.139-4.42 13.974-4.4 19.564-6.45 46.03-6.45 72.482 0 26.452 2.05 52.918 6.45 72.482 1.08 4.835 3.28 10.946 4.42 13.974Zm349.43-155.173v217.006h-76.62V79.318h95.37l134.02 195.255V79.318h76.62v306.011h-76.62l-152.77-217.006ZM1813.1 60.568v324.761h-76.61V79.318l76.61-18.75Zm253.29 235.756 76.62 9.176c-2.3 29.821-7.34 44.961-21.56 58.266-15.6 15.139-36.25 21.563-70.2 21.563h-122.49c-33.95 0-54.6-6.424-70.2-22.022-15.6-15.599-21.56-35.327-21.56-70.194V171.534c0-34.868 5.96-54.595 21.56-70.194 15.6-15.599 36.25-22.022 70.2-22.022h122.49c33.95 0 54.6 6.423 70.2 21.563 14.22 13.305 19.26 28.445 21.56 58.266l-76.62 9.176c-.46-17.434-5.5-21.563-27.53-21.563h-97.72c-21.56 0-27.52 5.046-27.52 22.939v125.249c0 17.892 5.96 22.939 27.52 22.939h97.72c21.57 0 27.07-4.588 27.53-21.563Z" class="logo-jsonic-text" clip-rule="evenodd"/>
  </g>
</svg>
