<svg xmlns="http://www.w3.org/2000/svg" width="1700" height="1288" fill="none" viewBox="0 0 1700 1288">
  <g class="logo-jsconic-vertical-color" clip-path="url(#a)">
    <g class="logo-jsconic-mark-color">
      <g class="logo-jsonic-mark-shadow">
        <g class="Clip path group">
          <mask id="b" width="672" height="672" x="502" y="104" class="b" maskUnits="userSpaceOnUse" style="mask-type:luminance">
            <g class="_clip1">
              <path fill="#fff" d="M1160.84 220.539c44.82 65.75-36.96 497.742-102.71 542.561-65.749 44.82-497.74-36.957-542.56-102.707-44.819-65.751 36.957-497.742 102.708-542.562 65.751-44.82 497.742 36.957 542.562 102.708Z" class="Vector"/>
            </g>
          </mask>
          <g class="Group" mask="url(#b)">
            <path fill="#000" fill-rule="evenodd" d="M837.5 403.349 782.656 241.43l-211.148-42.903 23.968-55.739 215.742 43.836a29.698 29.698 0 0 1 22.215 19.576l60.323 178.095c16.643 4.492 30.82 16.933 36.761 34.472 9.465 27.944-5.538 58.315-33.482 67.78-27.944 9.465-58.315-5.537-67.78-33.481-5.941-17.539-2.242-36.035 8.245-49.717Z" class="Vector" clip-rule="evenodd"/>
            <path fill="#000" fill-rule="evenodd" d="m634.36 336.579-98.385-41.704 15.912-57.811 105.666 44.801c14.431-9.447 33.159-11.762 50.217-4.532 27.178 11.521 39.89 42.938 28.37 70.116-11.521 27.178-42.939 39.89-70.116 28.369-17.058-7.23-28.418-22.3-31.664-39.239Zm-1.06 160.79-131.089 37.898 6.209-63.655 108.376-31.332c5.242-16.432 18.317-30.039 36.116-35.185 28.357-8.198 58.035 8.169 66.233 36.526 8.198 28.358-8.169 58.036-36.526 66.234-17.798 5.146-36.117.614-49.319-10.486Zm247.73-380.25 69.334 14.147-130.78 103.582c-12.856 10.182-31.559 8.011-41.741-4.844-10.182-12.855-8.011-31.559 4.844-41.741l98.343-71.144Z" class="Vector" clip-rule="evenodd"/>
          </g>
        </g>
        <path fill="#000" fill-rule="evenodd" d="M660.307 122.526c-17.771 1.88-28.3 5.232-33.054 8.472-4.753 3.241-11.721 11.816-19.967 27.67-7.928 15.244-16.042 35.222-24.006 58.716-15.909 46.934-30.727 106.431-42.163 166.843-11.436 60.412-19.39 121.209-21.736 170.709-1.175 24.78-.924 46.341.884 63.428 1.88 17.771 5.232 28.3 8.472 33.054 3.24 4.754 11.816 11.721 27.67 19.967 15.244 7.928 35.222 16.042 58.716 24.006 46.933 15.908 106.431 30.726 166.843 42.163 60.412 11.436 121.209 19.389 170.709 21.736 24.78 1.174 46.341.923 63.425-.884 17.77-1.881 28.3-5.232 33.06-8.473l8.97 13.167-8.97-13.167c4.75-3.24 11.72-11.815 19.96-27.67 7.93-15.244 16.05-35.221 24.01-58.715 15.91-46.934 30.73-106.431 42.16-166.843 11.44-60.412 19.39-121.209 21.74-170.71 1.17-24.779.92-46.34-.88-63.427-1.89-17.771-5.24-28.3-8.48-33.053-3.24-4.754-11.81-11.722-27.67-19.968-15.24-7.928-35.22-16.042-58.71-24.006-46.94-15.909-106.434-30.727-166.846-42.163-60.412-11.436-121.209-19.39-170.709-21.736-24.78-1.175-46.341-.924-63.428.884Zm513.703 89.038-13.17 8.975 13.17-8.975c7.96 11.684 11.86 29.038 13.83 47.651 2.04 19.297 2.24 42.623 1.02 68.289-2.43 51.391-10.63 113.722-22.25 175.129-11.63 61.407-26.78 122.42-43.3 171.146-8.25 24.335-16.96 45.973-25.91 63.19-8.64 16.605-18.61 31.334-30.29 39.298-11.69 7.965-29.04 11.862-47.65 13.832-19.3 2.041-42.627 2.242-68.294 1.025-51.39-2.436-113.721-10.632-175.128-22.257-61.407-11.624-122.421-26.777-171.146-43.293-24.335-8.249-45.974-16.961-63.19-25.915-16.606-8.636-31.334-18.607-39.299-30.29v-.001c-7.964-11.683-11.862-29.037-13.831-47.651-2.042-19.297-2.242-42.623-1.025-68.29 2.436-51.39 10.632-113.721 22.256-175.128 11.625-61.407 26.778-122.42 43.294-171.146 8.249-24.335 16.961-45.974 25.915-63.19 8.636-16.606 18.607-31.334 30.291-39.299 11.684-7.964 29.038-11.862 47.651-13.831 19.298-2.042 42.623-2.242 68.29-1.025 51.39 2.435 113.721 10.632 175.128 22.256 61.407 11.625 122.418 26.778 171.148 43.294 24.33 8.249 45.97 16.961 63.19 25.915 16.6 8.636 31.33 18.607 39.3 30.291Z" class="Vector (Stroke)" clip-rule="evenodd"/>
        <path fill="#000" fill-rule="evenodd" d="M806.6 604.119c-11.687-18.092-31.892-30.222-55.026-30.609-36.857-.616-67.281 28.807-67.898 65.665-.616 36.857 28.807 67.281 65.665 67.898 23.133.386 43.732-11.061 56.017-28.752l172.27 2.88c17.187.288 32.322-11.266 36.572-27.921l127.21-498.264c20.31-7.189 36.78-24.043 42.5-46.461 9.12-35.717-12.48-72.118-48.19-81.236-35.72-9.12-72.12 12.475-81.24 48.192-5.72 22.418.65 45.105 15.03 61.147L949.55 606.51l-142.95-2.391Z" class="Vector" clip-rule="evenodd"/>
      </g>
      <g class="logo-jsonic-mark-color-over">
        <g class="Clip path group">
          <mask id="c" width="671" height="672" x="490" y="88" class="c" maskUnits="userSpaceOnUse" style="mask-type:luminance">
            <g class="_clip2">
              <path fill="#fff" d="M1148.11 204.139c44.82 65.75-36.96 497.742-102.71 542.561-65.748 44.82-497.74-36.956-542.559-102.707-44.82-65.751 36.957-497.742 102.707-542.562 65.751-44.82 497.742 36.957 542.562 102.708Z" class="Vector"/>
            </g>
          </mask>
          <g class="Group" mask="url(#c)">
            <path fill="#E67E22" fill-rule="evenodd" d="m824.77 391.12-54.844-161.919-211.148-42.903 23.968-55.739 215.743 43.836a29.698 29.698 0 0 1 22.215 19.576l60.322 178.095c16.644 4.492 30.82 16.933 36.761 34.472 9.465 27.944-5.538 58.315-33.482 67.78-27.943 9.465-58.315-5.538-67.78-33.481-5.94-17.539-2.242-36.035 8.245-49.717Z" class="Vector" clip-rule="evenodd"/>
            <path fill="#3498DB" fill-rule="evenodd" d="m629.97 320.179-98.386-41.705 15.912-57.81 105.667 44.801c14.43-9.447 33.159-11.762 50.217-4.532 27.178 11.521 39.89 42.939 28.369 70.116-11.52 27.178-42.938 39.89-70.116 28.37-17.058-7.231-28.417-22.301-31.663-39.24Z" class="Vector" clip-rule="evenodd"/>
            <path fill="#2ECC71" fill-rule="evenodd" d="m622.66 485.139-131.089 37.897 6.209-63.655 108.376-31.331c5.242-16.432 18.317-30.039 36.115-35.185 28.358-8.198 58.036 8.169 66.234 36.526 8.198 28.357-8.169 58.036-36.526 66.234-17.799 5.145-36.118.614-49.319-10.486Z" class="Vector" clip-rule="evenodd"/>
            <path fill="#E67E22" fill-rule="evenodd" d="m872.471 109.06 69.334 14.148-130.78 103.582c-12.856 10.182-31.559 8.011-41.741-4.845-10.182-12.855-8.011-31.558 4.844-41.74l98.343-71.145Z" class="Vector" clip-rule="evenodd"/>
          </g>
        </g>
        <path fill="#F1C40F" fill-rule="evenodd" d="M647.577 106.126c-17.771 1.88-28.3 5.231-33.054 8.472-4.753 3.24-11.721 11.816-19.967 27.67-7.928 15.244-16.042 35.222-24.005 58.716-15.909 46.933-30.727 106.431-42.163 166.843-11.436 60.411-19.39 121.208-21.736 170.709-1.175 24.779-.924 46.34.884 63.427 1.88 17.772 5.231 28.3 8.472 33.054 3.24 4.754 11.816 11.722 27.67 19.968 15.244 7.928 35.221 16.042 58.716 24.006 46.933 15.908 106.43 30.726 166.842 42.162 60.412 11.436 121.209 19.39 170.71 21.736 24.779 1.175 46.34.924 63.424-.884 17.77-1.88 28.3-5.232 33.06-8.472 4.75-3.24 11.72-11.816 19.96-27.67 7.93-15.244 16.05-35.222 24.01-58.716 15.91-46.933 30.73-106.43 42.16-166.842 11.44-60.413 19.39-121.209 21.74-170.71 1.17-24.779.92-46.34-.88-63.427-1.89-17.772-5.24-28.3-8.48-33.054-3.24-4.754-11.81-11.722-27.67-19.967-15.24-7.929-35.22-16.043-58.71-24.006-46.94-15.909-106.433-30.727-166.845-42.163-60.412-11.437-121.209-19.39-170.71-21.737-24.779-1.174-46.341-.923-63.428.885Zm474.403 58.746c16.6 8.637 31.33 18.607 39.3 30.291 7.96 11.684 11.86 29.038 13.83 47.651 2.04 19.298 2.24 42.624 1.02 68.29-2.43 51.391-10.63 113.721-22.25 175.128-11.63 61.407-26.78 122.421-43.3 171.146-8.25 24.335-16.96 45.974-25.91 63.19-8.64 16.606-18.61 31.334-30.29 39.299-11.69 7.964-29.04 11.862-47.65 13.831-19.301 2.042-42.627 2.242-68.293 1.026-51.391-2.436-113.721-10.632-175.129-22.257-61.407-11.624-122.42-26.777-171.145-43.293-24.336-8.249-45.974-16.961-63.19-25.915-16.606-8.636-31.335-18.607-39.299-30.291-7.964-11.684-11.862-29.038-13.831-47.651-2.042-19.298-2.242-42.624-1.026-68.29 2.436-51.391 10.632-113.721 22.257-175.128 11.624-61.407 26.777-122.421 43.293-171.146 8.249-24.335 16.961-45.974 25.915-63.19 8.636-16.606 18.607-31.335 30.291-39.299 11.683-7.965 29.037-11.862 47.651-13.832 19.298-2.041 42.623-2.242 68.29-1.025 51.391 2.436 113.721 10.632 175.128 22.257 61.408 11.624 122.418 26.777 171.148 43.294 24.33 8.248 45.97 16.96 63.19 25.914Z" class="Vector (Stroke)" clip-rule="evenodd"/>
        <path fill="#8E44AD" fill-rule="evenodd" d="M795.96 591.889c-11.686-18.092-31.891-30.222-55.025-30.609-36.858-.616-67.282 28.807-67.898 65.664-.616 36.858 28.807 67.282 65.664 67.898 23.134.387 43.733-11.06 56.019-28.752l172.269 2.881c17.186.288 32.32-11.266 36.571-27.921l127.21-498.264c20.31-7.189 36.78-24.043 42.5-46.461 9.12-35.717-12.47-72.118-48.19-81.237-35.72-9.118-72.12 12.476-81.24 48.193-5.72 22.418.65 45.105 15.03 61.147L938.91 594.28l-142.95-2.391Z" class="Vector" clip-rule="evenodd"/>
      </g>
    </g>
    <g class="logo-jsonic-text">
      <path fill="#000" fill-rule="evenodd" d="m8.672 1192.07 76.618-9.18c.458 17.44 5.964 21.57 27.527 21.57h33.491c21.563 0 27.527-5.05 27.527-22.94V965.889h76.618v213.791c-.459 37.16-5.965 54.6-21.563 70.2-16.058 15.6-36.245 22.02-70.195 22.02h-58.266c-33.95 0-54.595-6.42-70.194-21.56-14.222-13.31-19.27-28.45-21.563-58.27Zm272.632 0 76.617-9.18c3.212 17.44 10.552 21.57 36.703 21.57h88.087c21.563 0 27.527-5.05 27.527-22.94v-9.18c0-17.89-5.964-22.94-27.527-22.94h-109.65c-33.95 0-55.054-6.42-70.194-22.02-13.764-13.76-21.563-36.24-21.563-60.56v-18.35c0-24.32 7.799-46.34 21.563-60.56 15.14-15.598 35.785-22.021 70.194-22.021h122.496c33.95 0 54.596 6.423 70.194 21.563 14.223 13.308 19.269 28.448 21.563 58.268l-76.617 9.17c-3.212-17.43-10.552-21.56-36.703-21.56h-88.087c-21.563 0-27.527 5.05-27.527 22.94v9.17c0 17.9 5.964 22.94 27.527 22.94h109.65c33.95 0 55.054 6.43 70.194 22.03 13.764 13.76 21.563 36.24 21.563 60.56v18.35c0 24.31-7.799 46.33-21.563 60.56-15.14 15.6-35.785 22.02-70.194 22.02H373.061c-33.95 0-54.595-6.42-70.194-21.56-14.222-13.31-19.269-28.45-21.563-58.27Zm626.445-202.535c6.875 6.875 13.82 18.565 18.632 34.605 7.286 24.29 11.279 61.86 11.279 99.47s-3.993 75.18-11.279 99.47c-4.812 16.04-11.757 27.73-18.632 34.61-6.875 6.87-18.57 13.82-34.61 18.63-24.282 7.28-61.854 11.28-99.466 11.28-37.611 0-75.184-4-99.466-11.28-16.039-4.81-27.734-11.76-34.609-18.63-6.875-6.88-13.82-18.57-18.632-34.61-7.286-24.29-11.279-61.86-11.279-99.47s3.993-75.18 11.279-99.47c4.812-16.04 11.757-27.73 18.632-34.605 6.875-6.875 18.57-13.82 34.609-18.632 24.282-7.286 61.855-11.279 99.466-11.279 37.612 0 75.184 3.993 99.466 11.279 16.04 4.812 27.735 11.757 34.61 18.632ZM687.218 1210.07c3.028 1.13 9.139 3.33 13.973 4.42 19.565 4.39 46.03 6.44 72.482 6.44 26.453 0 52.918-2.05 72.483-6.44 4.834-1.09 10.945-3.29 13.973-4.42 1.139-3.03 3.335-9.14 4.42-13.98 4.392-19.56 6.444-46.03 6.444-72.48 0-26.45-2.052-52.92-6.444-72.48-1.085-4.84-3.281-10.95-4.42-13.98-3.028-1.13-9.139-3.33-13.973-4.42-19.565-4.39-46.03-6.44-72.483-6.44-26.452 0-52.917 2.05-72.482 6.44-4.834 1.09-10.945 3.29-13.973 4.42-1.139 3.03-3.335 9.14-4.421 13.98-4.392 19.56-6.443 46.03-6.443 72.48 0 26.45 2.051 52.92 6.443 72.48 1.086 4.84 3.282 10.95 4.421 13.98Zm349.432-155.18v217.01h-76.618V965.889h95.368l134.02 195.251V965.889h76.62V1271.9h-76.62l-152.77-217.01Zm333.12-107.751V1271.9h-76.62V965.889l76.62-18.75Zm253.28 235.751 76.62 9.18c-2.29 29.82-7.34 44.96-21.56 58.27-15.6 15.14-36.25 21.56-70.2 21.56h-122.49c-33.95 0-54.6-6.42-70.2-22.02-15.6-15.6-21.56-35.33-21.56-70.2V1058.1c0-34.86 5.96-54.59 21.56-70.19 15.6-15.598 36.25-22.021 70.2-22.021h122.49c33.95 0 54.6 6.423 70.2 21.563 14.22 13.308 19.27 28.448 21.56 58.268l-76.62 9.17c-.46-17.43-5.5-21.56-27.52-21.56h-97.73c-21.56 0-27.52 5.05-27.52 22.94v125.25c0 17.89 5.96 22.94 27.52 22.94h97.73c21.56 0 27.06-4.59 27.52-21.57Z" class="logo-jsonic-shadow" clip-rule="evenodd"/>
      <path fill="#2980B9" fill-rule="evenodd" d="m.339 1181.66 76.617-9.18c.459 17.44 5.964 21.57 27.527 21.57h33.492c21.563 0 27.527-5.05 27.527-22.94V955.478h76.617v213.792c-.459 37.16-5.964 54.6-21.563 70.2-16.057 15.59-36.244 22.02-70.194 22.02H92.096c-33.95 0-54.595-6.43-70.194-21.57-14.222-13.3-19.27-28.44-21.563-58.26Z" class="logo-jsonic-text-1" clip-rule="evenodd"/>
      <path fill="#3498DB" fill-rule="evenodd" d="M220.56 1239.47c-16.057 15.6-23.44-50.05-55.054-68.36V955.48h76.617v213.79c-.459 37.17-5.964 54.6-21.563 70.2Z" class="logo-jsonic-text-11" clip-rule="evenodd"/>
      <path fill="#633079" fill-rule="evenodd" d="m272.97 1181.66 76.617-9.18c3.211 17.44 10.552 21.57 36.703 21.57h88.087c21.563 0 27.527-5.05 27.527-22.94v-9.18c0-17.89-5.964-22.94-27.527-22.94h-109.65c-33.95 0-55.054-6.42-70.194-22.02-13.764-13.76-21.563-36.24-21.563-60.56v-18.35c0-24.32 7.799-46.338 21.563-60.56 15.14-15.599 35.785-22.022 70.194-22.022h122.496c33.95 0 54.595 6.423 70.194 21.563 14.222 13.305 19.269 28.449 21.563 58.269l-76.617 9.17c-3.212-17.43-10.552-21.56-36.703-21.56h-88.087c-21.563 0-27.527 5.05-27.527 22.94v9.17c0 17.9 5.964 22.94 27.527 22.94h109.65c33.95 0 55.054 6.43 70.194 22.03 13.764 13.76 21.563 36.24 21.563 60.55v18.36c0 24.31-7.799 46.33-21.563 60.56-15.14 15.59-35.785 22.02-70.194 22.02H364.727c-33.95 0-54.596-6.43-70.194-21.57-14.223-13.3-19.269-28.44-21.563-58.26Z" class="logo-jsonic-text-12" clip-rule="evenodd"/>
      <path fill="#9B59B6" fill-rule="evenodd" d="M377.57 1077.97c152.701 0 146.808 27.5 96.804 61.02h-109.65c-33.95 0-55.054-6.43-70.194-22.02-13.764-13.77-21.563-36.25-21.563-60.56v-18.35c0-24.32 7.799-46.342 21.563-60.564 15.14-15.599 35.785-22.022 70.194-22.022H487.22c33.95 0 54.595 6.423 70.194 21.563 14.222 13.305 19.269 28.443 21.563 58.263l-76.617 9.18c-3.212-17.44-10.552-21.56-36.703-21.56H377.57c-21.563 0-27.527 5.04-27.527 22.93v9.18c0 17.89 5.964 22.94 27.527 22.94Z" class="logo-jsonic-text-13" clip-rule="evenodd"/>
      <path fill="#D35400" fill-rule="evenodd" d="M899.419 979.119c6.875 6.875 13.819 18.571 18.632 34.611 7.286 24.28 11.278 61.85 11.278 99.47 0 37.61-3.992 75.18-11.278 99.46-4.813 16.04-11.757 27.73-18.632 34.61-6.875 6.88-18.571 13.82-34.61 18.63-24.282 7.29-61.854 11.28-99.466 11.28-37.612 0-75.184-3.99-99.466-11.28-16.039-4.81-27.735-11.75-34.61-18.63-6.875-6.88-13.819-18.57-18.632-34.61-7.286-24.28-11.278-61.85-11.278-99.46 0-37.62 3.992-75.19 11.278-99.47 4.813-16.04 11.757-27.736 18.632-34.611 6.875-6.875 18.571-13.819 34.61-18.632 24.282-7.286 61.854-11.278 99.466-11.278 37.612 0 75.184 3.992 99.466 11.278 16.039 4.813 27.735 11.757 34.61 18.632ZM678.887 1199.65c3.028 1.14 9.139 3.34 13.974 4.42 19.564 4.39 46.03 6.44 72.482 6.44 26.452 0 52.918-2.05 72.482-6.44 4.835-1.08 10.946-3.28 13.974-4.42 1.138-3.03 3.335-9.14 4.42-13.97 4.392-19.57 6.444-46.03 6.444-72.48 0-26.46-2.052-52.92-6.444-72.49-1.085-4.83-3.282-10.94-4.42-13.97-3.028-1.14-9.139-3.34-13.974-4.42-19.564-4.39-46.03-6.44-72.482-6.44-26.452 0-52.918 2.05-72.482 6.44-4.835 1.08-10.946 3.28-13.974 4.42-1.138 3.03-3.335 9.14-4.42 13.97-4.392 19.57-6.444 46.03-6.444 72.49 0 26.45 2.052 52.91 6.444 72.48 1.085 4.83 3.282 10.94 4.42 13.97Z" class="logo-jsonic-text-14" clip-rule="evenodd"/>
      <path fill="#F39C12" fill-rule="evenodd" d="M678.88 1199.65c2.119.79-77.53-48.85-77.53-86.46 0-37.61 3.992-75.18 11.278-99.46 4.813-16.042 11.757-27.738 18.632-34.613 6.875-6.875 18.571-13.819 34.61-18.632 24.282-7.286 61.854-11.278 99.466-11.278 37.612 0 75.184 3.992 99.466 11.278 16.039 4.813 27.735 11.757 34.61 18.632 6.875 6.875 13.819 18.571 18.632 34.613 7.286 24.28 12.685 61.88 11.278 99.46-1.5 40.09-69.703 77.24-66.666 0 1.039-26.43-2.052-52.92-6.444-72.48-1.085-4.83-3.282-10.94-4.42-13.97-3.028-1.14-9.139-3.34-13.974-4.42-19.564-4.39-46.03-6.45-72.482-6.45-26.452 0-52.918 2.06-72.482 6.45-4.835 1.08-10.946 3.28-13.974 4.42-1.138 3.03-3.335 9.14-4.42 13.97-4.392 19.56-6.444 46.03-6.444 72.48 0 26.46 2.052 52.92 6.444 72.49 1.085 4.83 3.282 10.94 4.42 13.97Z" class="logo-jsonic-text-15" clip-rule="evenodd"/>
      <path fill="#F1C40F" fill-rule="evenodd" d="M1028.32 1044.48v217h-76.617V955.475h95.367l134.03 195.255V955.475h76.61v306.005h-76.61l-152.78-217Z" class="logo-jsonic-text-16" clip-rule="evenodd"/>
      <path fill="#E67E22" fill-rule="evenodd" d="M951.7 1156.84V955.473h95.37l93.94 136.857c-24.61-12.8-30.61 15.65-52.08 38.25l-60.61-86.1v97.7c-23.58 21.09-49.327 24.3-76.62 14.66Z" class="logo-jsonic-text-17" clip-rule="evenodd"/>
      <path fill="#E67E22" fill-rule="evenodd" d="M1181.09 1089.78V955.478h76.62v89.542c-29.32.63-36.01 42.16-76.62 44.76Z" class="logo-jsonic-text-18" clip-rule="evenodd"/>
      <path fill="#16A085" fill-rule="evenodd" d="M1361.43 936.729v324.761h-76.62V955.479l76.62-18.75Z" class="logo-jsonic-text-19" clip-rule="evenodd"/>
      <path fill="#2ECC71" fill-rule="evenodd" d="M1361.43 936.729v194.731c-40.82 60.41-42.82-2.09-76.62 0V955.479l76.62-18.75Z" class="logo-jsonic-text-110" clip-rule="evenodd"/>
      <path fill="#8E44AD" fill-rule="evenodd" d="m1614.72 1172.48 76.62 9.18c-2.3 29.82-7.34 44.96-21.57 58.26-15.59 15.14-36.24 21.56-70.19 21.56h-122.5c-33.95 0-54.59-6.42-70.19-22.02-15.6-15.6-21.56-35.32-21.56-70.19v-121.58c0-34.87 5.96-54.596 21.56-70.194 15.6-15.599 36.24-22.022 70.19-22.022h122.5c33.95 0 54.6 6.423 70.19 21.563 14.23 13.305 19.27 28.443 21.57 58.263l-76.62 9.18c-.46-17.44-5.5-21.56-27.53-21.56h-97.72c-21.56 0-27.53 5.04-27.53 22.93v125.25c0 17.9 5.97 22.94 27.53 22.94h97.72c21.57 0 27.07-4.59 27.53-21.56Z" class="logo-jsonic-text-111" clip-rule="evenodd"/>
      <path fill="#9B59B6" fill-rule="evenodd" d="M1461.94 1045.86c-27.43 63.28-60.99 29.54-76.62 80.41v-78.58c0-34.86 5.97-54.592 21.57-70.19 15.6-15.599 36.24-22.021 70.19-22.021h122.5c33.95 0 54.59 6.423 70.19 21.563 14.22 13.305 19.27 28.448 21.56 58.268l-76.61 9.17c-.46-17.43-5.51-21.56-27.53-21.56h-97.72c-21.56 0-27.53 5.05-27.53 22.94Z" class="logo-jsonic-text-112" clip-rule="evenodd"/>
    </g>
  </g>
  <defs>
    <clipPath id="a" class="a">
      <path fill="#fff" d="M0 0h1699.33v1287.32H0z" transform="translate(.339 .281)"/>
    </clipPath>
  </defs>
</svg>
