<svg xmlns="http://www.w3.org/2000/svg" width="1691" height="342" fill="currentColor" viewBox="0 0 1691 342">
  <defs>
    <clipPath id="a" class="a">
      <path d="M0 0h1691v340.458H0z" transform="translate(.001 .568)"/>
    </clipPath>
  </defs>
  <g class="logo-jsconic-text" clip-path="url(#a)">
    <path fill-rule="evenodd" d="m.001 245.5 76.617-9.176c.459 17.434 5.964 21.563 27.527 21.563h33.492c21.563 0 27.527-5.047 27.527-22.939V19.318h76.617v213.795c-.459 37.161-5.964 54.595-21.563 70.194-16.057 15.598-36.244 22.022-70.194 22.022H91.758c-33.95 0-54.596-6.424-70.194-21.563C7.341 290.461 2.295 275.321.001 245.5Zm272.631 0 76.618-9.176c3.211 17.434 10.552 21.563 36.703 21.563h88.087c21.563 0 27.527-5.047 27.527-22.939v-9.176c0-17.893-5.964-22.939-27.527-22.939H364.39c-33.95 0-55.055-6.423-70.195-22.022-13.763-13.764-21.563-36.244-21.563-60.56V101.9c0-24.316 7.8-46.338 21.563-60.56 15.14-15.599 35.786-22.022 70.195-22.022h122.496c33.95 0 54.595 6.423 70.194 21.563 14.222 13.305 19.269 28.445 21.563 58.266l-76.617 9.176c-3.212-17.434-10.553-21.563-36.703-21.563h-88.087c-21.563 0-27.527 5.046-27.527 22.939v9.176c0 17.892 5.964 22.939 27.527 22.939h109.65c33.95 0 55.054 6.423 70.194 22.022 13.763 13.763 21.563 36.244 21.563 60.56v18.351c0 24.316-7.8 46.337-21.563 60.56-15.14 15.598-35.785 22.022-70.194 22.022H364.39c-33.95 0-54.596-6.424-70.195-21.563-14.222-13.305-19.269-28.445-21.563-58.266ZM899.078 42.964c6.875 6.875 13.819 18.571 18.632 34.61 7.285 24.282 11.278 61.854 11.278 99.466 0 37.612-3.993 75.184-11.278 99.466-4.813 16.039-11.757 27.735-18.632 34.61-6.876 6.875-18.571 13.819-34.61 18.632-24.282 7.286-61.855 11.278-99.466 11.278-37.612 0-75.184-3.992-99.466-11.278-16.039-4.813-27.735-11.757-34.61-18.632-6.875-6.875-13.819-18.571-18.632-34.61-7.286-24.282-11.278-61.854-11.278-99.466 0-37.612 3.992-75.184 11.278-99.466 4.813-16.039 11.757-27.735 18.632-34.61 6.875-6.875 18.571-13.819 34.61-18.632 24.282-7.285 61.854-11.278 99.466-11.278 37.611 0 75.184 3.993 99.466 11.278 16.039 4.813 27.734 11.757 34.61 18.632ZM678.546 263.496c3.028 1.139 9.139 3.335 13.973 4.42 19.565 4.392 46.031 6.444 72.483 6.444 26.452 0 52.918-2.052 72.482-6.444 4.834-1.085 10.946-3.281 13.974-4.42 1.138-3.028 3.335-9.139 4.42-13.974 4.392-19.564 6.443-46.03 6.443-72.482 0-26.452-2.051-52.918-6.443-72.482-1.085-4.835-3.282-10.946-4.42-13.974-3.028-1.138-9.14-3.335-13.974-4.42-19.564-4.392-46.03-6.443-72.482-6.443-26.452 0-52.918 2.05-72.483 6.443-4.834 1.085-10.945 3.282-13.973 4.42-1.139 3.028-3.335 9.139-4.42 13.974-4.392 19.564-6.444 46.03-6.444 72.482 0 26.452 2.052 52.918 6.444 72.482 1.085 4.835 3.281 10.946 4.42 13.974Zm349.434-155.173v217.006h-76.619V19.318h95.369l134.02 195.255V19.318h76.62v306.011h-76.62l-152.77-217.006ZM1361.09.568v324.761h-76.61V19.318l76.61-18.75Zm253.29 235.756L1691 245.5c-2.29 29.821-7.34 44.961-21.56 58.266-15.6 15.139-36.25 21.563-70.2 21.563h-122.49c-33.95 0-54.6-6.424-70.2-22.022-15.6-15.599-21.56-35.327-21.56-70.194V111.534c0-34.868 5.96-54.595 21.56-70.194 15.6-15.599 36.25-22.022 70.2-22.022h122.49c33.95 0 54.6 6.423 70.2 21.563 14.22 13.305 19.27 28.445 21.56 58.266l-76.62 9.176c-.46-17.434-5.5-21.563-27.53-21.563h-97.72c-21.56 0-27.52 5.046-27.52 22.939v125.249c0 17.892 5.96 22.939 27.52 22.939h97.72c21.57 0 27.07-4.588 27.53-21.563Z" class="logo-jsonic-text" clip-rule="evenodd"/>
  </g>
</svg>
