<svg xmlns="http://www.w3.org/2000/svg" width="2148" height="424" fill="none" viewBox="0 0 2148 424">
  <g class="logo-jsconic-horizontal-color" clip-path="url(#a)">
    <g class="logo-jsconic-mark-color">
      <g class="logo-jsonic-mark-shadow">
        <g class="Clip path group">
          <mask id="b" width="354" height="353" x="15" y="59" class="b" maskUnits="userSpaceOnUse" style="mask-type:luminance">
            <g class="_clip1">
              <path fill="#fff" d="M361.79 119.776c23.551 34.55-19.419 261.548-53.969 285.099-34.551 23.552-261.548-19.42-285.1-53.969-23.55-34.55 19.42-261.548 53.97-285.1 34.55-23.551 261.548 19.42 285.099 53.97Z" class="Vector"/>
            </g>
          </mask>
          <g class="Group" mask="url(#b)">
            <path fill="#000" fill-rule="evenodd" d="m191.885 215.838-28.819-85.084L52.114 108.21 64.71 78.92l113.365 23.035a15.608 15.608 0 0 1 11.674 10.287l31.697 93.583c8.746 2.361 16.195 8.898 19.317 18.114 4.974 14.684-2.91 30.643-17.594 35.616-14.683 4.974-30.642-2.909-35.616-17.593-3.122-9.216-1.178-18.935 4.333-26.124Z" class="Vector" clip-rule="evenodd"/>
            <path fill="#000" fill-rule="evenodd" d="m85.142 180.752-51.699-21.915 8.362-30.377 55.524 23.541c7.583-4.964 17.424-6.18 26.387-2.381 14.281 6.054 20.961 22.563 14.908 36.844-6.054 14.281-22.563 20.961-36.844 14.907-8.963-3.799-14.933-11.718-16.638-20.619Zm-.558 84.49-68.883 19.914 3.263-33.449 56.948-16.464c2.754-8.634 9.625-15.784 18.978-18.488 14.901-4.308 30.495 4.292 34.803 19.193 4.308 14.901-4.292 30.496-19.193 34.804-9.352 2.704-18.978.322-25.916-5.51ZM214.758 65.433l36.433 7.433-68.721 54.43c-6.755 5.35-16.583 4.209-21.933-2.546-5.351-6.755-4.21-16.583 2.545-21.933l51.676-37.384Z" class="Vector" clip-rule="evenodd"/>
          </g>
        </g>
        <path fill="#000" fill-rule="evenodd" d="M98.776 68.273c-9.338.988-14.87 2.749-17.368 4.452-2.498 1.702-6.16 6.208-10.493 14.54-4.166 8.01-8.43 18.507-12.614 30.853-8.36 24.662-16.146 55.926-22.155 87.67-6.01 31.745-10.189 63.692-11.422 89.703-.617 13.021-.485 24.35.465 33.329.988 9.338 2.749 14.871 4.451 17.369 1.703 2.498 6.21 6.159 14.54 10.492 8.01 4.166 18.508 8.429 30.854 12.614 24.661 8.36 55.926 16.146 87.67 22.155 31.745 6.01 63.692 10.189 89.703 11.422 13.02.617 24.35.485 33.329-.465 9.338-.988 14.871-2.749 17.369-4.451l4.716 6.918-4.716-6.919c2.498-1.702 6.159-6.208 10.492-14.539 4.166-8.01 8.43-18.508 12.614-30.853 8.36-24.662 16.146-55.926 22.155-87.671 6.01-31.745 10.189-63.691 11.422-89.702.617-13.021.486-24.351-.464-33.33-.988-9.338-2.749-14.87-4.452-17.368-1.703-2.498-6.209-6.16-14.54-10.492-8.01-4.166-18.508-8.43-30.853-12.615-24.662-8.36-55.926-16.146-87.671-22.155-31.745-6.01-63.691-10.189-89.702-11.422-13.021-.617-24.351-.485-33.33.465Zm269.933 46.786-6.918 4.717 6.919-4.717c4.185 6.14 6.232 15.259 7.267 25.039 1.073 10.141 1.178 22.398.539 35.884-1.28 27.005-5.587 59.757-11.695 92.025-6.108 32.267-14.071 64.328-22.75 89.932-4.334 12.787-8.912 24.157-13.617 33.204-4.538 8.726-9.777 16.465-15.917 20.65-6.139 4.185-15.258 6.233-25.039 7.268-10.14 1.073-22.397 1.178-35.884.539-27.004-1.28-59.757-5.587-92.025-11.695-32.267-6.109-64.328-14.071-89.931-22.75-12.788-4.334-24.158-8.912-33.205-13.617-8.726-4.538-16.465-9.777-20.65-15.917-4.185-6.139-6.233-15.258-7.268-25.039-1.073-10.14-1.178-22.397-.539-35.884 1.28-27.004 5.587-59.757 11.695-92.025 6.109-32.267 14.071-64.328 22.75-89.931 4.334-12.788 8.912-24.158 13.617-33.205 4.538-8.726 9.778-16.465 15.917-20.65 6.14-4.185 15.259-6.233 25.04-7.268 10.14-1.073 22.397-1.178 35.883-.539 27.005 1.28 59.757 5.587 92.025 11.695 32.267 6.109 64.328 14.071 89.932 22.75 12.787 4.334 24.158 8.912 33.204 13.617 8.726 4.538 16.465 9.778 20.65 15.917Z" class="Vector (Stroke)" clip-rule="evenodd"/>
        <path fill="#000" fill-rule="evenodd" d="M175.649 321.335c-6.142-9.507-16.759-15.881-28.915-16.084-19.367-.324-35.354 15.137-35.678 34.505-.324 19.367 15.137 35.354 34.505 35.678 12.155.203 22.98-5.812 29.435-15.108l90.522 1.513a19.496 19.496 0 0 0 19.218-14.671l66.846-261.822c10.669-3.778 19.324-12.634 22.331-24.414 4.792-18.768-6.555-37.896-25.323-42.687-18.769-4.792-37.896 6.555-42.688 25.323-3.007 11.78.343 23.701 7.896 32.131l-63.034 246.893-75.115-1.257Z" class="Vector" clip-rule="evenodd"/>
      </g>
      <g class="logo-jsonic-mark-color-over">
        <g class="Clip path group">
          <mask id="c" width="353" height="354" x="9" y="50" class="c" maskUnits="userSpaceOnUse" style="mask-type:luminance">
            <g class="_clip2">
              <path fill="#fff" d="M355.102 111.158c23.551 34.55-19.42 261.548-53.97 285.099-34.55 23.551-261.548-19.419-285.1-53.97-23.55-34.55 19.42-261.547 53.97-285.099 34.55-23.551 261.549 19.42 285.1 53.97Z" class="Vector"/>
            </g>
          </mask>
          <g class="Group" mask="url(#c)">
            <path fill="#E67E22" fill-rule="evenodd" d="m185.197 209.41-28.819-85.084-110.951-22.544L58.02 72.493l113.366 23.035a15.607 15.607 0 0 1 11.674 10.286l31.697 93.583c8.746 2.361 16.195 8.898 19.317 18.114 4.973 14.684-2.91 30.643-17.594 35.617-14.683 4.973-30.643-2.91-35.616-17.594-3.122-9.216-1.178-18.935 4.332-26.124Z" class="Vector" clip-rule="evenodd"/>
            <path fill="#3498DB" fill-rule="evenodd" d="m82.835 172.133-51.698-21.915 8.361-30.377 55.525 23.541c7.582-4.964 17.424-6.18 26.387-2.381 14.281 6.054 20.961 22.563 14.907 36.844-6.053 14.281-22.562 20.961-36.844 14.907-8.963-3.799-14.932-11.718-16.638-20.619Z" class="Vector" clip-rule="evenodd"/>
            <path fill="#2ECC71" fill-rule="evenodd" d="M78.995 258.815 10.11 278.729l3.263-33.449 56.948-16.464c2.755-8.634 9.625-15.784 18.977-18.488 14.902-4.308 30.497 4.292 34.804 19.193 4.308 14.901-4.292 30.496-19.193 34.804-9.353 2.704-18.979.323-25.915-5.51Z" class="Vector" clip-rule="evenodd"/>
            <path fill="#E67E22" fill-rule="evenodd" d="m210.262 61.196 36.433 7.435-68.721 54.429c-6.755 5.35-16.583 4.209-21.933-2.546-5.351-6.755-4.21-16.583 2.545-21.933l51.676-37.385Z" class="Vector" clip-rule="evenodd"/>
          </g>
        </g>
        <path fill="#F1C40F" fill-rule="evenodd" d="M92.088 59.656c-9.339.988-14.871 2.748-17.37 4.451-2.497 1.703-6.158 6.21-10.491 14.54-4.166 8.01-8.43 18.508-12.615 30.854-8.359 24.661-16.145 55.925-22.155 87.67-6.009 31.745-10.189 63.692-11.421 89.703-.618 13.02-.486 24.35.464 33.329.988 9.338 2.75 14.87 4.452 17.368 1.703 2.498 6.209 6.16 14.54 10.493 8.01 4.166 18.508 8.429 30.853 12.614 24.662 8.36 55.926 16.146 87.671 22.155 31.744 6.01 63.691 10.189 89.702 11.422 13.021.617 24.35.485 33.329-.465 9.338-.988 14.871-2.749 17.369-4.452 2.498-1.702 6.159-6.208 10.492-14.539 4.166-8.011 8.43-18.508 12.614-30.854 8.36-24.662 16.147-55.926 22.156-87.67 6.009-31.745 10.189-63.692 11.422-89.703.617-13.02.485-24.35-.465-33.329-.988-9.338-2.749-14.87-4.452-17.368-1.703-2.498-6.209-6.16-14.54-10.493-8.01-4.166-18.508-8.43-30.853-12.614-24.662-8.36-55.926-16.146-87.671-22.155-31.744-6.01-63.691-10.19-89.702-11.422-13.021-.617-24.351-.486-33.33.465ZM341.37 90.525c8.725 4.538 16.465 9.778 20.65 15.917 4.185 6.139 6.233 15.258 7.268 25.039 1.073 10.14 1.178 22.397.538 35.884-1.28 27.004-5.586 59.757-11.695 92.025-6.108 32.267-14.071 64.328-22.749 89.931-4.335 12.788-8.913 24.158-13.618 33.205-4.538 8.726-9.777 16.465-15.917 20.65-6.139 4.185-15.258 6.233-25.039 7.268-10.14 1.073-22.397 1.178-35.884.539-27.004-1.28-59.757-5.587-92.024-11.695-32.268-6.108-64.328-14.071-89.932-22.75-12.787-4.334-24.158-8.912-33.204-13.617-8.726-4.538-16.465-9.777-20.65-15.917-4.186-6.14-6.234-15.258-7.269-25.039-1.072-10.141-1.178-22.397-.538-35.884 1.28-27.005 5.587-59.757 11.695-92.025 6.108-32.267 14.07-64.328 22.75-89.932 4.334-12.787 8.911-24.157 13.616-33.204 4.538-8.726 9.778-16.465 15.917-20.65 6.14-4.185 15.259-6.233 25.04-7.268 10.14-1.073 22.397-1.178 35.884-.539 27.004 1.28 59.757 5.587 92.024 11.695 32.268 6.108 64.329 14.07 89.932 22.75 12.788 4.334 24.158 8.912 33.205 13.617Z" class="Vector (Stroke)" clip-rule="evenodd"/>
        <path fill="#8E44AD" fill-rule="evenodd" d="M170.058 314.909c-6.141-9.507-16.758-15.881-28.914-16.084-19.368-.324-35.354 15.137-35.678 34.504-.324 19.368 15.137 35.355 34.504 35.678 12.156.204 22.981-5.811 29.437-15.108l90.521 1.514a19.497 19.497 0 0 0 19.218-14.672l66.845-261.822c10.669-3.777 19.325-12.634 22.332-24.414 4.792-18.768-6.555-37.895-25.323-42.687-18.768-4.791-37.896 6.556-42.688 25.324-3.007 11.78.343 23.701 7.895 32.13l-63.033 246.893-75.116-1.256Z" class="Vector" clip-rule="evenodd"/>
      </g>
    </g>
    <g class="logo-jsonic-text">
      <path fill="#000" fill-rule="evenodd" d="m456.341 295.27 76.617-9.176c.459 17.434 5.964 21.563 27.527 21.563h33.492c21.563 0 27.527-5.047 27.527-22.939V69.088h76.617v213.795c-.459 37.161-5.964 54.595-21.563 70.194-16.057 15.599-36.244 22.022-70.194 22.022h-58.266c-33.95 0-54.595-6.423-70.194-21.563-14.223-13.305-19.269-28.445-21.563-58.266Zm272.632 0 76.617-9.176c3.211 17.434 10.552 21.563 36.703 21.563h88.087c21.563 0 27.527-5.047 27.527-22.939v-9.176c0-17.893-5.964-22.939-27.527-22.939H820.73c-33.95 0-55.055-6.423-70.195-22.022-13.763-13.764-21.562-36.244-21.562-60.56V151.67c0-24.316 7.799-46.338 21.562-60.56 15.14-15.6 35.786-22.022 70.195-22.022h122.496c33.95 0 54.595 6.423 70.194 21.563 14.22 13.305 19.27 28.445 21.56 58.266l-76.614 9.176c-3.212-17.434-10.553-21.563-36.703-21.563h-88.087c-21.563 0-27.527 5.047-27.527 22.939v9.176c0 17.893 5.964 22.939 27.527 22.939h109.65c33.95 0 55.054 6.423 70.194 22.022 13.76 13.764 21.56 36.244 21.56 60.56v18.351c0 24.316-7.8 46.338-21.56 60.56-15.14 15.599-35.785 22.022-70.194 22.022H820.73c-33.95 0-54.596-6.423-70.195-21.563-14.222-13.305-19.269-28.445-21.562-58.266ZM1355.42 92.734c6.87 6.876 13.82 18.571 18.63 34.61 7.28 24.282 11.28 61.855 11.28 99.466 0 37.612-4 75.184-11.28 99.466-4.81 16.039-11.76 27.735-18.63 34.61-6.88 6.875-18.57 13.819-34.61 18.632-24.28 7.286-61.86 11.278-99.47 11.278s-75.18-3.992-99.46-11.278c-16.04-4.813-27.74-11.757-34.61-18.632-6.88-6.875-13.82-18.571-18.64-34.61-7.28-24.282-11.27-61.854-11.27-99.466 0-37.611 3.99-75.184 11.27-99.466 4.82-16.039 11.76-27.734 18.64-34.61 6.87-6.875 18.57-13.82 34.61-18.632 24.28-7.285 61.85-11.278 99.46-11.278 37.61 0 75.19 3.993 99.47 11.278 16.04 4.813 27.73 11.757 34.61 18.632Zm-220.53 220.532c3.02 1.139 9.13 3.335 13.97 4.42 19.56 4.392 46.03 6.444 72.48 6.444 26.45 0 52.92-2.052 72.48-6.444 4.84-1.085 10.95-3.281 13.98-4.42 1.14-3.028 3.33-9.139 4.42-13.973 4.39-19.565 6.44-46.03 6.44-72.483 0-26.452-2.05-52.918-6.44-72.482-1.09-4.834-3.28-10.946-4.42-13.974-3.03-1.138-9.14-3.335-13.98-4.42-19.56-4.392-46.03-6.443-72.48-6.443-26.45 0-52.92 2.051-72.48 6.443-4.84 1.085-10.95 3.282-13.97 4.42-1.14 3.028-3.34 9.14-4.42 13.974-4.4 19.564-6.45 46.03-6.45 72.482 0 26.453 2.05 52.918 6.45 72.483 1.08 4.834 3.28 10.945 4.42 13.973Zm349.43-155.173v217.006h-76.62V69.088h95.37l134.02 195.255V69.088h76.62v306.011h-76.62l-152.77-217.006Zm333.11-107.755v324.761h-76.61V69.088l76.61-18.75Zm253.29 235.756 76.62 9.176c-2.3 29.821-7.34 44.961-21.56 58.266-15.6 15.14-36.25 21.563-70.2 21.563h-122.49c-33.95 0-54.6-6.423-70.2-22.022-15.6-15.599-21.56-35.327-21.56-70.194V161.304c0-34.867 5.96-54.595 21.56-70.194 15.6-15.6 36.25-22.022 70.2-22.022h122.49c33.95 0 54.6 6.423 70.2 21.563 14.22 13.305 19.26 28.445 21.56 58.266l-76.62 9.176c-.46-17.434-5.5-21.563-27.53-21.563h-97.72c-21.56 0-27.52 5.047-27.52 22.939v125.249c0 17.892 5.96 22.939 27.52 22.939h97.72c21.57 0 27.07-4.588 27.53-21.563Z" class="logo-jsonic-shadow" clip-rule="evenodd"/>
      <path fill="#2980B9" fill-rule="evenodd" d="m448.011 284.85 76.617-9.176c.459 17.434 5.964 21.563 27.527 21.563h33.491c21.563 0 27.528-5.046 27.528-22.939V58.668h76.617v213.795c-.459 37.162-5.964 54.596-21.563 70.194-16.058 15.599-36.244 22.022-70.194 22.022h-58.266c-33.95 0-54.596-6.423-70.195-21.563-14.222-13.305-19.269-28.445-21.562-58.266Z" class="logo-jsonic-text-1" clip-rule="evenodd"/>
      <path fill="#3498DB" fill-rule="evenodd" d="M668.221 342.66c-16.058 15.599-23.44-50.046-55.054-68.359V58.671h76.617v213.795c-.459 37.162-5.964 54.596-21.563 70.194Z" class="logo-jsonic-text-11" clip-rule="evenodd"/>
      <path fill="#633079" fill-rule="evenodd" d="m720.642 284.85 76.617-9.176c3.212 17.434 10.553 21.563 36.703 21.563h88.087c21.563 0 27.527-5.046 27.527-22.939v-9.176c0-17.892-5.964-22.939-27.527-22.939h-109.65c-33.95 0-55.054-6.423-70.194-22.022-13.763-13.763-21.563-36.244-21.563-60.559V141.25c0-24.315 7.8-46.337 21.563-60.56 15.14-15.598 35.785-22.021 70.194-22.021h122.496c33.95 0 54.596 6.423 70.195 21.563 14.22 13.304 19.27 28.444 21.56 58.265l-76.615 9.176c-3.211-17.434-10.552-21.563-36.703-21.563h-88.087c-21.563 0-27.527 5.047-27.527 22.94v9.175c0 17.893 5.964 22.94 27.527 22.94h109.65c33.95 0 55.055 6.423 70.195 22.021 13.76 13.764 21.56 36.244 21.56 60.56v18.351c0 24.316-7.8 46.338-21.56 60.56-15.14 15.599-35.786 22.022-70.195 22.022H812.399c-33.95 0-54.595-6.423-70.194-21.563-14.222-13.305-19.269-28.445-21.563-58.266Z" class="logo-jsonic-text-12" clip-rule="evenodd"/>
      <path fill="#9B59B6" fill-rule="evenodd" d="M825.242 181.17c152.701 0 146.809 27.503 96.804 61.018h-109.65c-33.95 0-55.054-6.423-70.194-22.022-13.763-13.763-21.563-36.244-21.563-60.559v-18.352c0-24.315 7.8-46.337 21.563-60.56 15.14-15.598 35.785-22.021 70.194-22.021h122.496c33.95 0 54.596 6.423 70.198 21.563 14.22 13.304 19.27 28.444 21.56 58.265l-76.618 9.176c-3.211-17.434-10.552-21.563-36.703-21.563h-88.087c-21.563 0-27.527 5.047-27.527 22.94v9.175c0 17.893 5.964 22.94 27.527 22.94Z" class="logo-jsonic-text-13" clip-rule="evenodd"/>
      <path fill="#D35400" fill-rule="evenodd" d="M1347.08 82.32c6.88 6.875 13.82 18.57 18.63 34.609 7.29 24.282 11.28 61.855 11.28 99.467 0 37.611-3.99 75.184-11.28 99.466-4.81 16.039-11.75 27.734-18.63 34.609-6.87 6.875-18.57 13.82-34.61 18.632-24.28 7.286-61.85 11.279-99.46 11.279-37.62 0-75.19-3.993-99.47-11.279-16.04-4.812-27.73-11.757-34.61-18.632-6.87-6.875-13.82-18.57-18.63-34.609-7.29-24.282-11.28-61.855-11.28-99.466 0-37.612 3.99-75.185 11.28-99.467 4.81-16.039 11.76-27.734 18.63-34.609 6.88-6.875 18.57-13.82 34.61-18.632 24.28-7.286 61.85-11.279 99.47-11.279 37.61 0 75.18 3.993 99.46 11.28 16.04 4.811 27.74 11.756 34.61 18.631Zm-220.53 220.531c3.03 1.139 9.14 3.335 13.97 4.42 19.57 4.393 46.03 6.444 72.49 6.444 26.45 0 52.91-2.051 72.48-6.444 4.83-1.085 10.94-3.281 13.97-4.42 1.14-3.028 3.34-9.139 4.42-13.973 4.39-19.565 6.45-46.03 6.45-72.482 0-26.453-2.06-52.918-6.45-72.483-1.08-4.834-3.28-10.945-4.42-13.973-3.03-1.139-9.14-3.335-13.97-4.42-19.57-4.393-46.03-6.444-72.48-6.444-26.46 0-52.92 2.051-72.49 6.444-4.83 1.085-10.94 3.281-13.97 4.42-1.14 3.028-3.33 9.139-4.42 13.973-4.39 19.565-6.44 46.03-6.44 72.483 0 26.452 2.05 52.917 6.44 72.482 1.09 4.834 3.28 10.945 4.42 13.973Z" class="logo-jsonic-text-14" clip-rule="evenodd"/>
      <path fill="#F39C12" fill-rule="evenodd" d="M1126.55 302.85c2.12.797-77.53-48.844-77.53-86.455 0-37.612 3.99-75.185 11.28-99.467 4.81-16.039 11.76-27.734 18.63-34.609 6.88-6.875 18.57-13.82 34.61-18.632 24.28-7.286 61.86-11.279 99.47-11.279s75.18 3.993 99.46 11.28c16.04 4.811 27.74 11.756 34.61 18.631 6.88 6.875 13.82 18.57 18.63 34.609 7.29 24.282 12.69 61.881 11.28 99.467-1.5 40.089-69.7 77.241-66.66 0 1.04-26.432-2.05-52.918-6.45-72.483-1.08-4.834-3.28-10.945-4.42-13.973-3.03-1.139-9.14-3.335-13.97-4.42-19.57-4.393-46.03-6.444-72.48-6.444-26.46 0-52.92 2.051-72.49 6.444-4.83 1.085-10.94 3.281-13.97 4.42-1.14 3.028-3.33 9.139-4.42 13.973-4.39 19.565-6.44 46.03-6.44 72.483 0 26.452 2.05 52.917 6.44 72.482 1.09 4.834 3.28 10.945 4.42 13.973Z" class="logo-jsonic-text-15" clip-rule="evenodd"/>
      <path fill="#F1C40F" fill-rule="evenodd" d="M1475.98 147.67v217.006h-76.62V58.666h95.37l134.03 195.255V58.666h76.61v306.01h-76.61L1475.98 147.67Z" class="logo-jsonic-text-16" clip-rule="evenodd"/>
      <path fill="#E67E22" fill-rule="evenodd" d="M1399.37 260.04V58.673h95.37l93.94 136.853c-24.61-12.797-30.61 15.652-52.08 38.25l-60.61-86.099v97.7c-23.58 21.091-49.33 24.299-76.62 14.663Z" class="logo-jsonic-text-17" clip-rule="evenodd"/>
      <path fill="#E67E22" fill-rule="evenodd" d="M1628.76 192.97V58.669h76.62v89.542c-29.32.635-36.01 42.163-76.62 44.759Z" class="logo-jsonic-text-18" clip-rule="evenodd"/>
      <path fill="#16A085" fill-rule="evenodd" d="M1809.1 39.92v324.76h-76.62V58.67l76.62-18.75Z" class="logo-jsonic-text-19" clip-rule="evenodd"/>
      <path fill="#2ECC71" fill-rule="evenodd" d="M1809.1 39.92v194.726c-40.81 60.418-42.82-2.082-76.62 0V58.67l76.62-18.75Z" class="logo-jsonic-text-110" clip-rule="evenodd"/>
      <path fill="#8E44AD" fill-rule="evenodd" d="m2062.39 275.68 76.62 9.176c-2.3 29.821-7.34 44.961-21.56 58.266-15.6 15.14-36.25 21.563-70.2 21.563h-122.5c-33.95 0-54.59-6.423-70.19-22.022-15.6-15.598-21.56-35.326-21.56-70.194V150.891c0-34.868 5.96-54.596 21.56-70.195 15.6-15.598 36.24-22.021 70.19-22.021h122.5c33.95 0 54.6 6.423 70.2 21.563 14.22 13.304 19.26 28.444 21.56 58.265l-76.62 9.176c-.46-17.434-5.5-21.563-27.53-21.563h-97.72c-21.56 0-27.53 5.047-27.53 22.94v125.248c0 17.893 5.97 22.939 27.53 22.939h97.72c21.57 0 27.07-4.587 27.53-21.563Z" class="logo-jsonic-text-111" clip-rule="evenodd"/>
      <path fill="#9B59B6" fill-rule="evenodd" d="M1909.61 149.05c-27.43 63.28-60.99 29.536-76.62 80.411v-78.576c0-34.868 5.97-54.596 21.57-70.195 15.6-15.598 36.24-22.021 70.19-22.021h122.5c33.95 0 54.59 6.423 70.19 21.563 14.22 13.304 19.27 28.444 21.56 58.265l-76.61 9.176c-.46-17.434-5.51-21.563-27.53-21.563h-97.72c-21.56 0-27.53 5.047-27.53 22.94Z" class="logo-jsonic-text-112" clip-rule="evenodd"/>
    </g>
  </g>
  <defs>
    <clipPath id="a" class="a">
      <path fill="#fff" d="M0 0h2146.43v423.358H0z" transform="translate(.912 .158)"/>
    </clipPath>
  </defs>
</svg>
