<svg xmlns="http://www.w3.org/2000/svg" width="1701" height="352" fill="none" viewBox="0 0 1701 352">
  <g class="logo-jsconic-text-color" clip-path="url(#a)">
    <g class="logo-jsonic-text">
      <path fill="#000" fill-rule="evenodd" d="m9.167 255.99 76.618-9.176c.459 17.434 5.964 21.563 27.527 21.563h33.491c21.563 0 27.527-5.047 27.527-22.939V29.808h76.618v213.795c-.459 37.161-5.964 54.595-21.563 70.194-16.058 15.599-36.244 22.022-70.194 22.022h-58.266c-33.95 0-54.596-6.423-70.195-21.563-14.222-13.305-19.269-28.445-21.563-58.266Zm272.632 0 76.617-9.176c3.212 17.434 10.553 21.563 36.703 21.563h88.087c21.563 0 27.527-5.047 27.527-22.939v-9.176c0-17.893-5.964-22.939-27.527-22.939h-109.65c-33.95 0-55.054-6.423-70.194-22.022-13.763-13.764-21.563-36.244-21.563-60.56V112.39c0-24.316 7.8-46.338 21.563-60.56 15.14-15.6 35.785-22.022 70.194-22.022h122.496c33.95 0 54.596 6.423 70.195 21.563 14.222 13.305 19.269 28.445 21.562 58.266l-76.617 9.176c-3.211-17.434-10.552-21.563-36.703-21.563h-88.087c-21.563 0-27.527 5.047-27.527 22.939v9.176c0 17.893 5.964 22.939 27.527 22.939h109.65c33.95 0 55.055 6.423 70.195 22.022 13.763 13.764 21.562 36.244 21.562 60.56v18.351c0 24.316-7.799 46.338-21.562 60.56-15.14 15.599-35.786 22.022-70.195 22.022H373.556c-33.95 0-54.595-6.423-70.194-21.563-14.222-13.305-19.269-28.445-21.563-58.266ZM908.244 53.454c6.875 6.876 13.82 18.57 18.632 34.61 7.286 24.282 11.279 61.855 11.279 99.466 0 37.612-3.993 75.184-11.279 99.466-4.812 16.039-11.757 27.735-18.632 34.61-6.875 6.875-18.57 13.819-34.609 18.632-24.282 7.286-61.855 11.278-99.466 11.278-37.612 0-75.185-3.992-99.467-11.278-16.039-4.813-27.734-11.757-34.609-18.632-6.875-6.875-13.82-18.571-18.632-34.61-7.286-24.282-11.279-61.854-11.279-99.466 0-37.611 3.993-75.184 11.279-99.466 4.812-16.04 11.757-27.734 18.632-34.61 6.875-6.875 18.57-13.82 34.609-18.632 24.282-7.285 61.855-11.278 99.467-11.278 37.611 0 75.184 3.993 99.466 11.278 16.039 4.813 27.734 11.757 34.609 18.632ZM687.713 273.986c3.028 1.139 9.139 3.335 13.973 4.42 19.565 4.392 46.03 6.444 72.483 6.444 26.452 0 52.917-2.052 72.482-6.444 4.834-1.085 10.945-3.281 13.973-4.42 1.139-3.028 3.335-9.139 4.42-13.973 4.393-19.565 6.444-46.03 6.444-72.483 0-26.452-2.051-52.918-6.444-72.482-1.085-4.834-3.281-10.946-4.42-13.974-3.028-1.138-9.139-3.335-13.973-4.42-19.565-4.392-46.03-6.443-72.482-6.443-26.453 0-52.918 2.05-72.483 6.443-4.834 1.085-10.945 3.282-13.973 4.42-1.139 3.028-3.335 9.14-4.42 13.974-4.393 19.564-6.444 46.03-6.444 72.482 0 26.453 2.051 52.918 6.444 72.483 1.085 4.834 3.281 10.945 4.42 13.973Zm349.437-155.173v217.006h-76.622V29.808h95.372l134.02 195.255V29.808h76.62v306.011h-76.62l-152.77-217.006Zm333.11-107.755v324.761h-76.62V29.808l76.62-18.75Zm253.29 235.756 76.62 9.176c-2.3 29.821-7.34 44.961-21.57 58.266-15.6 15.14-36.24 21.563-70.19 21.563h-122.5c-33.95 0-54.59-6.423-70.19-22.022-15.6-15.599-21.56-35.327-21.56-70.194V122.024c0-34.867 5.96-54.595 21.56-70.194 15.6-15.6 36.24-22.022 70.19-22.022h122.5c33.95 0 54.59 6.423 70.19 21.563 14.23 13.305 19.27 28.445 21.57 58.266l-76.62 9.176c-.46-17.434-5.51-21.563-27.53-21.563h-97.72c-21.56 0-27.53 5.047-27.53 22.939v125.249c0 17.892 5.97 22.939 27.53 22.939h97.72c21.56 0 27.07-4.588 27.53-21.563Z" class="logo-jsonic-shadow" clip-rule="evenodd"/>
      <path fill="#2980B9" fill-rule="evenodd" d="m.834 245.57 76.617-9.176c.459 17.434 5.965 21.563 27.528 21.563h33.491c21.563 0 27.527-5.046 27.527-22.939V19.388h76.617v213.795c-.458 37.162-5.964 54.596-21.563 70.194-16.057 15.599-36.244 22.022-70.194 22.022H92.591c-33.95 0-54.595-6.423-70.194-21.563C8.175 290.531 3.128 275.391.834 245.57Z" class="logo-jsonic-text-1" clip-rule="evenodd"/>
      <path fill="#3498DB" fill-rule="evenodd" d="M221.05 303.38c-16.057 15.599-23.44-50.046-55.054-68.359V19.391h76.617v213.795c-.458 37.162-5.964 54.596-21.563 70.194Z" class="logo-jsonic-text-11" clip-rule="evenodd"/>
      <path fill="#633079" fill-rule="evenodd" d="m273.47 245.57 76.617-9.176c3.212 17.434 10.552 21.563 36.703 21.563h88.087c21.563 0 27.527-5.046 27.527-22.939v-9.176c0-17.892-5.964-22.939-27.527-22.939h-109.65c-33.95 0-55.054-6.423-70.194-22.022-13.764-13.763-21.563-36.244-21.563-60.559V101.97c0-24.315 7.799-46.337 21.563-60.56 15.14-15.598 35.785-22.021 70.194-22.021h122.496c33.95 0 54.595 6.423 70.194 21.563 14.223 13.304 19.269 28.444 21.563 58.265l-76.617 9.176c-3.212-17.434-10.552-21.563-36.703-21.563h-88.087c-21.563 0-27.527 5.047-27.527 22.94v9.175c0 17.893 5.964 22.94 27.527 22.94h109.65c33.95 0 55.054 6.423 70.194 22.021 13.764 13.764 21.563 36.244 21.563 60.56v18.351c0 24.316-7.799 46.338-21.563 60.56-15.14 15.599-35.785 22.022-70.194 22.022H365.227c-33.95 0-54.596-6.423-70.194-21.563-14.223-13.305-19.269-28.445-21.563-58.266Z" class="logo-jsonic-text-12" clip-rule="evenodd"/>
      <path fill="#9B59B6" fill-rule="evenodd" d="M378.07 141.89c152.701 0 146.808 27.502 96.804 61.017h-109.65c-33.95 0-55.054-6.423-70.194-22.022-13.764-13.763-21.563-36.243-21.563-60.558v-18.353c0-24.315 7.799-46.336 21.563-60.56 15.14-15.597 35.785-22.02 70.194-22.02H487.72c33.95 0 54.595 6.423 70.194 21.563 14.223 13.303 19.269 28.444 21.563 58.265l-76.617 9.175c-3.212-17.434-10.552-21.563-36.703-21.563H378.07c-21.563 0-27.527 5.047-27.527 22.941v9.174c0 17.893 5.964 22.941 27.527 22.941Z" class="logo-jsonic-text-13" clip-rule="evenodd"/>
      <path fill="#D35400" fill-rule="evenodd" d="M899.91 43.04c6.875 6.875 13.819 18.57 18.632 34.609 7.286 24.282 11.278 61.855 11.278 99.467 0 37.611-3.992 75.184-11.278 99.466-4.813 16.039-11.757 27.734-18.632 34.609-6.875 6.875-18.571 13.82-34.61 18.632-24.282 7.286-61.854 11.279-99.466 11.279-37.611 0-75.184-3.993-99.466-11.279-16.039-4.812-27.734-11.757-34.61-18.632-6.875-6.875-13.819-18.57-18.632-34.609-7.285-24.282-11.278-61.855-11.278-99.466 0-37.612 3.993-75.185 11.278-99.467 4.813-16.04 11.757-27.734 18.632-34.61 6.876-6.874 18.571-13.82 34.61-18.631 24.282-7.286 61.855-11.28 99.466-11.28 37.612 0 75.184 3.994 99.466 11.28 16.039 4.812 27.735 11.757 34.61 18.632ZM679.378 263.57c3.028 1.139 9.14 3.335 13.974 4.42 19.565 4.393 46.03 6.444 72.482 6.444 26.453 0 52.918-2.051 72.483-6.444 4.834-1.085 10.945-3.281 13.973-4.42 1.139-3.028 3.335-9.139 4.42-13.973 4.392-19.565 6.444-46.03 6.444-72.482 0-26.453-2.052-52.918-6.444-72.483-1.085-4.834-3.281-10.945-4.42-13.973-3.028-1.14-9.139-3.335-13.973-4.42-19.565-4.393-46.03-6.444-72.483-6.444-26.452 0-52.917 2.05-72.482 6.444-4.834 1.085-10.946 3.28-13.974 4.42-1.138 3.028-3.335 9.139-4.42 13.973-4.392 19.565-6.443 46.03-6.443 72.483 0 26.452 2.051 52.917 6.443 72.482 1.085 4.834 3.282 10.945 4.42 13.973Z" class="logo-jsonic-text-14" clip-rule="evenodd"/>
      <path fill="#F39C12" fill-rule="evenodd" d="M679.38 263.57c2.119.797-77.53-48.844-77.53-86.455 0-37.612 3.993-75.185 11.278-99.467 4.813-16.04 11.757-27.734 18.632-34.61 6.876-6.874 18.571-13.82 34.61-18.631 24.282-7.286 61.855-11.28 99.466-11.28 37.612 0 75.184 3.994 99.466 11.28 16.039 4.812 27.735 11.757 34.61 18.632 6.875 6.875 13.819 18.57 18.632 34.609 7.286 24.282 12.685 61.881 11.278 99.467-1.5 40.089-69.703 77.241-66.666 0 1.039-26.432-2.052-52.918-6.444-72.483-1.085-4.834-3.281-10.945-4.42-13.973-3.028-1.14-9.139-3.335-13.973-4.42-19.565-4.393-46.03-6.444-72.483-6.444-26.452 0-52.917 2.05-72.482 6.444-4.834 1.085-10.946 3.28-13.974 4.42-1.138 3.028-3.335 9.139-4.42 13.973-4.392 19.565-6.443 46.03-6.443 72.483 0 26.452 2.051 52.917 6.443 72.482 1.085 4.834 3.282 10.945 4.42 13.973Z" class="logo-jsonic-text-15" clip-rule="evenodd"/>
      <path fill="#F1C40F" fill-rule="evenodd" d="M1028.81 108.39v217.006h-76.618V19.386h95.368l134.02 195.255V19.386h76.62v306.01h-76.62L1028.81 108.39Z" class="logo-jsonic-text-16" clip-rule="evenodd"/>
      <path fill="#E67E22" fill-rule="evenodd" d="M952.19 220.76V19.393h95.37l93.94 136.853c-24.61-12.797-30.61 15.652-52.08 38.25l-60.61-86.099v97.7c-23.59 21.091-49.327 24.299-76.62 14.663Z" class="logo-jsonic-text-17" clip-rule="evenodd"/>
      <path fill="#E67E22" fill-rule="evenodd" d="M1181.59 153.69V19.389h76.62v89.542c-29.32.635-36.01 42.163-76.62 44.759Z" class="logo-jsonic-text-18" clip-rule="evenodd"/>
      <path fill="#16A085" fill-rule="evenodd" d="M1361.93.64V325.4h-76.62V19.39L1361.93.64Z" class="logo-jsonic-text-19" clip-rule="evenodd"/>
      <path fill="#2ECC71" fill-rule="evenodd" d="M1361.93.64v194.726c-40.82 60.418-42.82-2.082-76.62 0V19.39L1361.93.64Z" class="logo-jsonic-text-110" clip-rule="evenodd"/>
      <path fill="#8E44AD" fill-rule="evenodd" d="m1615.22 236.4 76.62 9.176c-2.3 29.821-7.34 44.961-21.56 58.266-15.6 15.14-36.25 21.563-70.2 21.563h-122.5c-33.95 0-54.59-6.423-70.19-22.022-15.6-15.598-21.56-35.327-21.56-70.195V111.61c0-34.867 5.96-54.596 21.56-70.195 15.6-15.598 36.24-22.02 70.19-22.02h122.5c33.95 0 54.6 6.422 70.2 21.563 14.22 13.303 19.26 28.444 21.56 58.264l-76.62 9.177c-.46-17.434-5.5-21.563-27.53-21.563h-97.72c-21.56 0-27.52 5.046-27.52 22.94v125.248c0 17.893 5.96 22.939 27.52 22.939h97.72c21.57 0 27.07-4.587 27.53-21.563Z" class="logo-jsonic-text-111" clip-rule="evenodd"/>
      <path fill="#9B59B6" fill-rule="evenodd" d="M1462.44 109.77c-27.43 63.28-60.99 29.536-76.62 80.411v-78.576c0-34.868 5.97-54.596 21.57-70.195 15.59-15.598 36.24-22.021 70.19-22.021h122.5c33.95 0 54.59 6.423 70.19 21.563 14.22 13.304 19.27 28.444 21.56 58.265l-76.61 9.176c-.46-17.434-5.51-21.563-27.53-21.563h-97.72c-21.57 0-27.53 5.047-27.53 22.94Z" class="logo-jsonic-text-112" clip-rule="evenodd"/>
    </g>
  </g>
  <defs>
    <clipPath id="a" class="a">
      <path fill="#fff" d="M0 0h1699.33v350.876H0z" transform="translate(.834 .64)"/>
    </clipPath>
  </defs>
</svg>
